# xmcd
#
# Track frame offsets:
#	150
#	17771
#	37757
#	56883
#	74569
#	92856
#	112033
#	129895
#	150825
#	170859
#	189692
#	206615
#	225963
#	257101
#
# Disc length: 4119 seconds
#
# Revision: 2
# Processed by: cddbd v1.5.1PL0 Copyright (c) Steve Scherf et al.
# Submitted via: EasyCDDAExtractor 8.2.1.1
#
DISCID=bc10150e
DTITLE=мимо
DYEAR=2003
DGENRE=казйа
TTITLE0=йакглеяа
TTITLE1=хекы ма ды
TTITLE2=выяис ма неяы
TTITLE3=сталата
TTITLE4=ока циа сема
TTITLE5=се паяайакы
TTITLE6=окос о йослос
TTITLE7=са мауацои
TTITLE8=ас текеиысоуле
TTITLE9=жике лоу
TTITLE10=сйотысе ле
TTITLE11=пыс
TTITLE12=сйиес
TTITLE13=DATA
EXTD=
EXTT0=
EXTT1=
EXTT2=
EXTT3=
EXTT4=
EXTT5=
EXTT6=
EXTT7=
EXTT8=
EXTT9=
EXTT10=
EXTT11=
EXTT12=
EXTT13=
PLAYORDER=
